<svg width="30" height="30" viewBox="0 0 30 30" fill="none" xmlns="http://www.w3.org/2000/svg">
<path d="M29.3085 0.274225C29.0814 0.119671 28.818 0.0268942 28.5442 0.00502369C28.2704 -0.0168468 27.9957 0.0329423 27.7469 0.149493L0.905866 12.7806C0.631499 12.9099 0.400177 13.1155 0.23956 13.3728C0.0789433 13.63 -0.0041691 13.9282 0.000160967 14.2314C0.00449104 14.5347 0.0960805 14.8303 0.263977 15.0829C0.431874 15.3355 0.668971 15.5344 0.946917 15.6558L9.47291 19.3867V30L18.6873 23.4192L26.2091 26.7096C26.4413 26.8113 26.6946 26.8556 26.9476 26.8387C27.2005 26.8219 27.4457 26.7443 27.6624 26.6127C27.879 26.481 28.0608 26.2992 28.1923 26.0824C28.3238 25.8657 28.4012 25.6205 28.418 25.3675L29.9969 1.68417C30.0142 1.40965 29.9598 1.13534 29.8391 0.888161C29.7184 0.64098 29.5356 0.429416 29.3085 0.274225ZM25.4149 22.9155L17.0958 19.2746L22.104 9.47442L10.0271 16.1847L5.3978 14.159L26.667 4.14882L25.4149 22.9155Z" fill="#6100FF"/>
</svg>
