<svg width="30" height="30" viewBox="0 0 30 30" fill="none" xmlns="http://www.w3.org/2000/svg">
<path d="M29.2742 6.1479C28.8087 4.94483 28.1375 3.85462 27.2983 2.93829C26.4583 2.01924 25.4681 1.28887 24.3813 0.786925C23.2543 0.264367 22.0456 -0.003108 20.8253 2.72463e-05C19.1133 2.72463e-05 17.443 0.523333 15.9914 1.5118C15.6442 1.74826 15.3143 2.00797 15.0017 2.29095C14.6892 2.00797 14.3593 1.74826 14.012 1.5118C12.5605 0.523333 10.8901 2.72463e-05 9.17813 2.72463e-05C7.94535 2.72463e-05 6.75077 0.263619 5.62217 0.786925C4.53177 1.29085 3.54902 2.01572 2.70517 2.93829C1.86479 3.85358 1.19346 4.94406 0.72925 6.1479C0.246556 7.39996 0 8.72955 0 10.0979C0 11.3887 0.236138 12.7338 0.704942 14.1022C1.09735 15.2457 1.65991 16.4318 2.37874 17.6296C3.51776 19.5252 5.08392 21.5021 7.02858 23.5062C10.2512 26.8282 13.4425 29.123 13.5779 29.216L14.401 29.8052C14.7656 30.0649 15.2344 30.0649 15.599 29.8052L16.422 29.216C16.5575 29.1191 19.7453 26.8282 22.9714 23.5062C24.916 21.5021 26.4822 19.5252 27.6212 17.6296C28.3401 16.4318 28.9061 15.2457 29.295 14.1022C29.7638 12.7338 30 11.3887 30 10.0979C30.0034 8.72955 29.7569 7.39996 29.2742 6.1479Z" fill="#6100FF"/>
</svg>
