<svg width="30" height="30" viewBox="0 0 30 30" fill="none" xmlns="http://www.w3.org/2000/svg">
<path d="M15.4168 27.1875H12.5002V19.8504L21.2886 9.96387C22.097 9.05449 21.5246 7.5 20.3813 7.5H1.2857C0.142478 7.5 -0.429912 9.05449 0.378414 9.96387L9.16687 19.8504V27.1875H6.25023C5.09972 27.1875 4.16692 28.2369 4.16692 29.5312C4.16692 29.7902 4.35337 30 4.58358 30H17.0835C17.3137 30 17.5001 29.7902 17.5001 29.5312C17.5001 28.2369 16.5673 27.1875 15.4168 27.1875ZM22.5001 0C19.2392 0 16.4923 2.35547 15.4595 5.625H18.1959C19.0631 3.95215 20.6579 2.8125 22.5001 2.8125C25.2568 2.8125 27.5 5.33555 27.5 8.4375C27.5 11.5395 25.2568 14.0625 22.5001 14.0625C21.7688 14.0625 21.0787 13.875 20.4522 13.5562L18.6157 15.6223C19.7517 16.4016 21.0725 16.875 22.5001 16.875C26.6422 16.875 30 13.0975 30 8.4375C30 3.77754 26.6422 0 22.5001 0Z" fill="#6100FF"/>
</svg>
