<svg width="30" height="30" viewBox="0 0 30 30" fill="none" xmlns="http://www.w3.org/2000/svg">
<path d="M26.7938 23.571C26.0566 22.8649 25.3391 22.1386 24.6422 21.3928C24.0567 20.7979 23.7041 20.3651 23.7041 20.3651L19.297 18.2609C21.0614 16.2601 22.0352 13.6843 22.0357 11.0167C22.0357 4.94334 17.0934 0 11.0178 0C4.94229 0 0 4.94334 0 11.0167C0 17.09 4.94229 22.0334 11.0178 22.0334C13.7928 22.0334 16.3221 20.9946 18.2629 19.2965L20.3673 23.7032C20.3673 23.7032 20.8001 24.0557 21.3951 24.6412C22.0042 25.2125 22.8054 25.9852 23.5735 26.7926L25.7109 28.9833L26.6616 30L30 26.6619L28.9832 25.7114C28.3867 25.1259 27.5902 24.3484 26.7938 23.571ZM11.0178 18.8857C6.67838 18.8857 3.14795 15.3557 3.14795 11.0167C3.14795 6.67768 6.67838 3.14762 11.0178 3.14762C15.3573 3.14762 18.8877 6.67768 18.8877 11.0167C18.8877 15.3557 15.3573 18.8857 11.0178 18.8857Z" fill="#6100FF"/>
</svg>
